<svg width="69" height="18" viewBox="0 0 69 18" fill="none" xmlns="http://www.w3.org/2000/svg">
<path d="M0.608122 0.535999H4.08812V13.976H12.9681V17H0.608122V0.535999ZM23.008 17.288C20.368 17.288 18.32 16.584 16.864 15.176C15.408 13.752 14.68 11.616 14.68 8.768C14.68 5.92 15.408 3.792 16.864 2.384C18.32 0.96 20.368 0.248 23.008 0.248C25.664 0.248 27.72 0.96 29.176 2.384C30.632 3.792 31.36 5.92 31.36 8.768C31.36 11.616 30.632 13.752 29.176 15.176C27.72 16.584 25.664 17.288 23.008 17.288ZM23.008 14.336C24.576 14.336 25.76 13.888 26.56 12.992C27.376 12.08 27.784 10.792 27.784 9.128V8.408C27.784 6.744 27.376 5.464 26.56 4.568C25.76 3.656 24.576 3.2 23.008 3.2C21.44 3.2 20.256 3.656 19.456 4.568C18.656 5.464 18.256 6.744 18.256 8.408V9.128C18.256 10.792 18.656 12.08 19.456 12.992C20.256 13.888 21.44 14.336 23.008 14.336ZM41.3277 17.288C38.7837 17.288 36.8157 16.592 35.4237 15.2C34.0477 13.808 33.3597 11.664 33.3597 8.768C33.3597 5.936 34.0957 3.808 35.5677 2.384C37.0397 0.96 39.1197 0.248 41.8077 0.248C43.2317 0.248 44.5277 0.472 45.6957 0.92C46.8797 1.352 47.8157 2.016 48.5037 2.912C49.2077 3.792 49.5597 4.872 49.5597 6.152H45.9597C45.9597 5.256 45.5597 4.544 44.7597 4.016C43.9757 3.472 43.0317 3.2 41.9277 3.2C40.2477 3.2 38.9917 3.648 38.1597 4.544C37.3437 5.44 36.9357 6.728 36.9357 8.408V9.128C36.9357 10.888 37.3117 12.2 38.0637 13.064C38.8317 13.912 39.9997 14.336 41.5677 14.336C42.8637 14.336 43.9357 14.032 44.7837 13.424C45.6317 12.8 46.0637 11.96 46.0797 10.904H41.0877V8.048H49.5597V17H47.1597L46.8477 15.176C46.0797 15.912 45.2717 16.448 44.4237 16.784C43.5757 17.12 42.5437 17.288 41.3277 17.288ZM60.3674 17.288C57.7274 17.288 55.6794 16.584 54.2234 15.176C52.7674 13.752 52.0394 11.616 52.0394 8.768C52.0394 5.92 52.7674 3.792 54.2234 2.384C55.6794 0.96 57.7274 0.248 60.3674 0.248C63.0234 0.248 65.0794 0.96 66.5354 2.384C67.9914 3.792 68.7194 5.92 68.7194 8.768C68.7194 11.616 67.9914 13.752 66.5354 15.176C65.0794 16.584 63.0234 17.288 60.3674 17.288ZM60.3674 14.336C61.9354 14.336 63.1194 13.888 63.9194 12.992C64.7354 12.08 65.1434 10.792 65.1434 9.128V8.408C65.1434 6.744 64.7354 5.464 63.9194 4.568C63.1194 3.656 61.9354 3.2 60.3674 3.2C58.7994 3.2 57.6154 3.656 56.8154 4.568C56.0154 5.464 55.6154 6.744 55.6154 8.408V9.128C55.6154 10.792 56.0154 12.08 56.8154 12.992C57.6154 13.888 58.7994 14.336 60.3674 14.336Z" fill="#FF7C76"/>
</svg>
