<svg width="21" height="18" viewBox="0 0 21 18" fill="none" xmlns="http://www.w3.org/2000/svg">
<path d="M14.1316 1.45508H1.55566V12.3542H14.1316V1.45508Z" stroke="white" stroke-width="1.5" stroke-linecap="round" stroke-linejoin="round"/>
<path d="M14.1309 5.64684H17.4845L19.9997 8.16203V12.354H14.1309V5.64684Z" stroke="white" stroke-width="1.5" stroke-linecap="round" stroke-linejoin="round"/>
<path d="M5.32778 16.5462C6.48536 16.5462 7.42377 15.6078 7.42377 14.4502C7.42377 13.2926 6.48536 12.3542 5.32778 12.3542C4.17019 12.3542 3.23179 13.2926 3.23179 14.4502C3.23179 15.6078 4.17019 16.5462 5.32778 16.5462Z" stroke="white" stroke-width="1.5" stroke-linecap="round" stroke-linejoin="round"/>
<path d="M16.2269 16.5462C17.3845 16.5462 18.3229 15.6078 18.3229 14.4502C18.3229 13.2926 17.3845 12.3542 16.2269 12.3542C15.0693 12.3542 14.1309 13.2926 14.1309 14.4502C14.1309 15.6078 15.0693 16.5462 16.2269 16.5462Z" stroke="white" stroke-width="1.5" stroke-linecap="round" stroke-linejoin="round"/>
</svg>
